# xmcd CD database file
#
# Track frame offsets:
#	150
#	17714
#	32765
#	48890
#	60899
#
# Disc length: 958 seconds
#
# Revision: 0
# Processed by: cddbd v1.5.2PL0 Copyright (c) Steve Scherf et al.
# Submitted via: CDex 1.70beta2
#
DISCID=3003bc05
DTITLE=Davey Craddock - Introducing Davey Craddock
DYEAR=2009
DGENRE=Blues
TTITLE0=Peanuts
TTITLE1=Bourgeois blues
TTITLE2=The end of the curve
TTITLE3=Rolling River
TTITLE4=My street
EXTD=YEAR: 2009
EXTT0=
EXTT1=
EXTT2=
EXTT3=
EXTT4=
PLAYORDER=
